<svg width="234" height="11" viewBox="0 0 234 11" fill="none" xmlns="http://www.w3.org/2000/svg">
<rect width="234" height="11" fill="#E5E5E5"/>
<g id="Desktop" clip-path="url(#clip0_0_1)">
<rect width="1440" height="6628" transform="translate(-603 -5005)" fill="white"/>
<g id="Frame">
<g id="Frame_2">
<path id="Rectangle" d="M-603 -4900H837V1175H-603V-4900Z" fill="#F7F7F7"/>
<g id="Frame_3">
<g id="Frame_4">
<g id="Frame_5">
<g id="Frame_6" clip-path="url(#clip1_0_1)">
<rect id="Rectangle_2" x="19" y="1" width="9" height="9" fill="black"/>
<rect id="Rectangle_3" x="47" y="1" width="9" height="9" fill="black"/>
<rect id="Rectangle_4" x="75" y="1" width="9" height="9" fill="black"/>
<rect id="Rectangle_5" x="103" y="1" width="9" height="9" fill="black"/>
<rect id="Rectangle_6" x="131" y="1" width="9" height="9" fill="black"/>
<rect id="Rectangle_7" x="159" y="1" width="9" height="9" fill="black"/>
<rect id="Rectangle_8" x="187" y="1" width="9" height="9" fill="black"/>
<rect id="Rectangle_9" x="215" y="1" width="9" height="9" fill="black"/>
<rect id="Rectangle_10" x="33" y="1" width="9" height="9" fill="black"/>
<rect id="Rectangle_11" x="89" y="1" width="9" height="9" fill="black"/>
<rect id="Rectangle_12" x="145" y="1" width="9" height="9" fill="black"/>
<rect id="Rectangle_13" x="201" y="1" width="9" height="9" fill="black"/>
<rect id="Rectangle_14" x="61" y="1" width="9" height="9" fill="black"/>
<rect id="Rectangle_15" x="173" y="1" width="9" height="9" fill="black"/>
<rect id="Rectangle_16" x="117" y="1" width="9" height="9" fill="black"/>
</g>
</g>
</g>
</g>
</g>
<g id="Frame_7">
<g id="Frame_8">
<g id="Frame_9">
</g>
</g>
</g>
</g>
</g>
<defs>
<clipPath id="clip0_0_1">
<rect width="1440" height="6628" fill="white" transform="translate(-603 -5005)"/>
</clipPath>
<clipPath id="clip1_0_1">
<rect width="233" height="10" fill="white" transform="translate(0.5 0.734375)"/>
</clipPath>
</defs>
</svg>
